<svg id="Grupo_2443" data-name="Grupo 2443" xmlns="http://www.w3.org/2000/svg" xmlns:xlink="http://www.w3.org/1999/xlink" width="108.599" height="108.613" viewBox="0 0 108.599 108.613">
  <g id="Grupo_2442" data-name="Grupo 2442" clip-path="url(#clip-path)">
    <path id="Trazado_3170" data-name="Trazado 3170" d="M102.368,29.061C92.963,10.9,73.688,0,53.95,0A52.233,52.233,0,0,0,35.63,3.288a54.3,54.3,0,0,0,5.862,103.781,53.241,53.241,0,0,0,13.077,1.513,2.606,2.606,0,0,0,2.69-2.684,2.566,2.566,0,0,0-2.661-2.581,6.653,6.653,0,0,1-4.956-2.13,29.517,29.517,0,0,1-3.633-4.545c-3.377-5.451-5.023-11.382-6.187-16.461-.3-1.294-.544-2.561-.806-3.908q-.179-.911-.368-1.848l-.322-1.592,6.376,0c3.769,0,7.448,0,11.127-.007a3.278,3.278,0,0,0,2.379-.879,2.443,2.443,0,0,0,.687-1.8c-.023-1.579-1.224-2.6-3.059-2.608q-5.409,0-10.825,0l-6.9,0-.259-.992c-1.1-4.2-1.038-21.673.093-24.606l.328-.849H70.653l.173,1.125c.017.106.036.206.053.3a5.535,5.535,0,0,1,.109.843q.065,1.448.126,2.9c.136,3.115.279,6.336.375,9.511.056,1.845,1.095,3.045,2.644,3.059h.023a2.467,2.467,0,0,0,1.795-.723,3.1,3.1,0,0,0,.839-2.246c-.017-2.76-.1-5.55-.186-8.154-.036-1.164-.109-2.312-.182-3.53-.033-.554-.07-1.111-.1-1.675l-.08-1.4h25.206l.259,1a48.769,48.769,0,0,1,1.6,13.167,6.447,6.447,0,0,0,.119,1.705,2.565,2.565,0,0,0,2.82,1.818,2.69,2.69,0,0,0,2.342-2.886,55.116,55.116,0,0,0-6.217-26.845M6.865,66.5a47.512,47.512,0,0,1,0-24.423l.259-.992H32v26.4H7.127ZM41.33,99.236l1.735,3.029-3.311-1.111C25.947,96.505,16.13,87.88,9.741,74.776l-.929-1.908h24.2l.186,1.1c1.31,7.753,3.3,16.816,8.134,25.263M33.2,34.591l-.189,1.1H8.819l.929-1.908C16.12,20.708,25.94,12.086,39.771,7.431l3.314-1.118L41.343,9.349c-4.844,8.443-6.834,17.5-8.141,25.243m4.98,1.1.382-1.629c.239-1.022.468-2.04.693-3.049.5-2.209,1.009-4.492,1.616-6.711a42.343,42.343,0,0,1,5.822-13.423A21.215,21.215,0,0,1,50.4,6.788c1.692-1.423,4.409-2.584,7.766-.05a19.217,19.217,0,0,1,5.112,6.4c3.536,6.482,5.182,13.505,6.224,18.9.086.458.159.912.236,1.393.036.226.076.464.116.713l.259,1.543Zm37.351-.023-.186-1.108c-1.314-7.766-3.3-16.84-8.134-25.213L65.461,6.316l3.321,1.111C82.6,12.056,92.416,20.671,98.8,33.759l.929,1.911Z" transform="translate(0)" fill="#fe5000"/>
    <path id="Trazado_3171" data-name="Trazado 3171" d="M247.626,243.86a2.8,2.8,0,0,1,.9,2.458,2.747,2.747,0,0,1-1.652,1.974c-.8.375-1.719.551-3-.727q-4.25-4.23-8.483-8.473l-4.429-4.429c-.222-.222-.454-.438-.7-.667-.113-.1-.229-.209-.345-.322L229,232.81l-1.261,1.2c-.245.232-.474.448-.7.67q-2.05,2.05-4.1,4.1-4.359,4.359-8.728,8.712a2.7,2.7,0,0,1-3.241.7,2.366,2.366,0,0,1-1.433-2.488,4.678,4.678,0,0,1,1.141-2.1c3.493-3.593,7.113-7.186,10.613-10.666l1.994-1.984a3.708,3.708,0,0,1,.544-.395c.149-.1.3-.2.458-.312l1.234-.882-1.042-1.1-.468-.5c-.265-.285-.471-.5-.683-.717l-4.17-4.17c-2.893-2.89-5.885-5.879-8.818-8.831a2.55,2.55,0,0,1-.581-3.059,2.393,2.393,0,0,1,2.468-1.47,4.574,4.574,0,0,1,2.1,1.111c3.327,3.235,6.658,6.579,9.883,9.813.926.929,1.851,1.861,2.777,2.787.182.182.362.391.571.634.113.129.232.269.362.415l.909,1.022,1-.942c.139-.129.265-.249.388-.365.249-.232.471-.441.687-.657q2.03-2.03,4.057-4.061c2.923-2.929,5.948-5.962,8.944-8.917a2.639,2.639,0,0,1,4.6,1.241c.209.78.106,1.539-1.068,2.71q-2.573,2.568-5.139,5.135-3.225,3.225-6.456,6.449c-.438.438-.9.869-1.393,1.324q-.368.338-.756.707l-.969.906.909.969c.129.136.246.262.355.378.236.255.441.481.657.7q2.085,2.085,4.173,4.167c2.893,2.89,5.889,5.875,8.811,8.831" transform="translate(-139.99 -139.954)" fill="#fe5000"/>
  </g>
</svg>
